<svg width="248" height="248" viewBox="0 0 248 248" fill="none" xmlns="http://www.w3.org/2000/svg">
<path d="M74.9975 134.001C33.3511 98.2115 27.0671 134.877 51 163H59V161C59 148.001 66.4985 138.002 74.9975 134.001Z" fill="#F2F2F7"/>
<path d="M59.998 131.993C59.9461 133.376 59.3205 135.547 57.6645 135.501C56.0117 135.455 53.9491 133.217 54.001 131.837C54.0511 130.501 55.5643 129.045 57.1645 129.001C58.8714 128.954 60.0515 130.568 59.998 131.993Z" fill="#ECCFD1"/>
<path d="M39.9858 139.487C39.0794 138.441 38.0536 136.428 39.2945 135.331C40.5331 134.236 43.5684 134.462 44.4731 135.505C45.349 136.515 45.2379 138.612 44.0994 139.737C42.8849 140.937 40.9202 140.564 39.9858 139.487Z" fill="#ECCFD1"/>
<path d="M55.998 143C55.9166 145.677 53.4441 148.087 50.8486 147.998C48.2581 147.909 45.9208 145.359 46.0021 142.688C46.0807 140.101 48.3406 138.088 50.8486 138.003C53.5239 137.911 56.0819 140.241 55.998 143Z" fill="#ECCFD1"/>
<path d="M51.5 127C52.5638 129.68 50.732 134.476 47.8493 134.513C44.9104 134.551 43.2282 130.567 44.3503 127.85C44.9837 126.317 45.8615 125.164 47.5138 125.014C49.4074 124.843 50.7983 125.233 51.5 127Z" fill="#ECCFD1"/>
<path d="M75 134.003C34.0542 98.814 27.2888 133.66 49.8142 161.569C50.5507 162.482 51.6757 163 52.8483 163H59" stroke="#C8C8C8" stroke-width="4" stroke-linecap="round" stroke-dasharray="12 12"/>
</svg>
