<svg width="256" height="256" viewBox="0 0 256 256" fill="none" xmlns="http://www.w3.org/2000/svg">
<g clip-path="url(#clip0_4507_1514)">
<g clip-path="url(#clip1_4507_1514)">
<path d="M319.152 151.186C295.948 143.018 247.636 129.249 207.69 128.389C205.229 128.336 202.863 127.235 201.245 125.38C165.814 84.757 171.476 103.995 156.238 137.754C155.587 139.196 154.504 140.42 153.189 141.301C106.995 172.221 84.3851 226.066 77.8704 251.115C76.5971 256.011 80.4284 260.403 85.4871 260.403H388.002C392.076 260.403 395.56 257.47 395.425 253.398C395.037 241.705 390.436 222.053 376.744 201.71C375.614 200.032 375.066 198.035 375.237 196.019C377.219 172.682 378.564 131.268 369.677 130.46C361.252 129.694 339.463 142.176 326.803 150.289C324.523 151.75 321.706 152.085 319.152 151.186Z" fill="white" stroke="#614949" stroke-width="8.45161"/>
<path d="M190.752 127.577C174.846 109.576 174.393 116.107 168.888 131.622C167.582 135.301 171.298 138.756 174.955 137.392C178.181 136.189 181.957 135.263 187.725 134.714C191.237 134.381 193.088 130.221 190.752 127.577Z" fill="#FE9AA1"/>
<path d="M122.462 199.133C34.4677 123.512 21.1902 200.984 71.758 260.404H88.6613V256.178C88.6613 228.713 104.505 207.586 122.462 199.133Z" fill="white"/>
<path d="M90.77 194.889C90.6603 197.811 89.3385 202.398 85.8395 202.3C82.3473 202.203 77.9893 197.474 78.0988 194.558C78.2048 191.735 81.402 188.66 84.783 188.567C88.3896 188.467 90.8831 191.878 90.77 194.889Z" fill="#FD9BA1"/>
<path d="M48.4862 210.722C46.5709 208.513 44.4035 204.26 47.0256 201.941C49.6424 199.627 56.0558 200.105 57.9673 202.309C59.818 204.443 59.5832 208.873 57.1777 211.251C54.6117 213.787 50.4604 212.999 48.4862 210.722Z" fill="#FD9BA1"/>
<path d="M82.3183 218.146C82.1464 223.801 76.9223 228.893 71.4381 228.705C65.9648 228.517 61.0262 223.13 61.1979 217.486C61.364 212.021 66.139 207.768 71.4381 207.587C77.0909 207.393 82.4956 212.316 82.3183 218.146Z" fill="#FD9BA1"/>
<path d="M72.8145 184.339C75.0623 190 71.1919 200.135 65.1009 200.214C58.8914 200.294 55.337 191.875 57.7079 186.135C59.0463 182.895 60.9009 180.46 64.3922 180.143C68.3931 179.78 71.332 180.605 72.8145 184.339Z" fill="#FD9BA1"/>
<path d="M119.713 202.342C121.483 203.863 124.151 203.661 125.673 201.891C127.194 200.121 126.992 197.453 125.222 195.932L122.468 199.137L119.713 202.342ZM69.2525 257.381L65.9641 260.035L69.2525 257.381ZM69.2525 257.381L72.5409 254.727C60.9601 240.378 53.2159 225.22 49.3865 211.788C45.5088 198.188 45.823 187.042 49.331 180.189C51.0267 176.877 53.4594 174.558 56.6552 173.257C59.9083 171.933 64.3104 171.521 70.1081 172.717C81.8233 175.133 98.2783 183.92 119.713 202.342L122.468 199.137L125.222 195.932C103.4 177.178 85.625 167.287 71.8151 164.439C64.8502 163.003 58.6659 163.313 53.4684 165.429C48.2137 167.569 44.3315 171.409 41.8079 176.338C36.8772 185.969 37.1344 199.64 41.2587 214.106C45.4312 228.741 53.7479 244.899 65.9641 260.035L69.2525 257.381ZM75.6633 260.404V264.63H88.6612V260.404V256.178H75.6633V260.404ZM69.2525 257.381L65.9641 260.035C68.3524 262.995 71.9567 264.63 75.6633 264.63V260.404V256.178C74.4146 256.178 73.2649 255.624 72.5409 254.727L69.2525 257.381Z" fill="#614949"/>
<circle cx="159.444" cy="208.637" r="5.28226" fill="#614949" stroke="#614949" stroke-width="8.45161"/>
<path d="M182.685 209.693C183.364 213.897 188.244 221.726 199.299 211.992C200.46 210.97 202.342 211.363 203.156 212.677C207.443 219.597 215.334 219.661 222.831 214.976" stroke="#614949" stroke-width="8.45161" stroke-linecap="round"/>
<path d="M148.921 222.485C148.06 228.952 141.709 231.905 135.187 231.993C127.842 232.093 119.702 227.685 120.396 220.372C121.045 213.536 128.862 208.893 136.243 209.808C143.191 210.671 149.844 215.545 148.921 222.485Z" fill="#FF9BA2" fill-opacity="0.5"/>
<path d="M267.196 144.193C287.306 141.959 289.739 111.091 285.161 95.5966C273.217 104.028 247.536 111.384 252.411 99.8224C253.547 97.1291 264.032 71.298 236.559 69.1854C222.887 68.1339 212.266 79.7492 211.21 93.4842C210.724 99.8049 218.605 98.7664 216.49 112.5C212.621 137.618 229.169 148.419 267.196 144.193Z" fill="#FFE688"/>
<path d="M252.411 99.8205C253.547 97.1272 264.038 70.2424 236.565 68.13C208.725 65.9894 218.788 97.5741 216.49 112.498C212.621 137.616 229.169 148.417 267.196 144.192C286.135 142.087 289.396 114.586 285.887 98.4485C285.58 97.0343 283.93 96.4549 282.693 97.2062C270.035 104.896 247.85 110.637 252.411 99.8205ZM252.411 99.8205L247.129 109.331M212.772 86.0436C210.508 85.4776 208.732 87.0229 208.166 89.2868C207.6 91.5508 208.928 93.7014 211.192 94.2676" stroke="#614949" stroke-width="8.45161" stroke-linecap="round"/>
<path d="M214.379 90.3145L222.831 92.4274" stroke="#F99129" stroke-width="8.45161" stroke-linecap="round"/>
<path d="M238.677 87.1455V91.3713" stroke="#614949" stroke-width="8.45161" stroke-linecap="round"/>
<path d="M245.016 123.064C250.651 129.051 263.398 136.164 269.315 116.726" stroke="#FA9125" stroke-width="8.45161" stroke-linecap="round"/>
<path d="M395.032 262.516C240.368 344.497 278.47 267.798 316.855 220.258C325.306 243.5 363.339 254.064 391.227 254.145L395.443 254.064C395.493 256.609 395.339 260.862 395.032 262.516Z" fill="white"/>
</g>
</g>
<defs>
<clipPath id="clip0_4507_1514">
<rect width="256" height="256" fill="white"/>
</clipPath>
<clipPath id="clip1_4507_1514">
<rect width="524" height="524" fill="white" transform="translate(-36 -84)"/>
</clipPath>
</defs>
</svg>
