<svg width="248" height="248" viewBox="0 0 248 248" fill="none" xmlns="http://www.w3.org/2000/svg">
<path d="M204 164C130.8 202.8 148.833 166.5 167 144C171 155 189 160 202.199 160.038L204.194 160C204.218 161.204 204.145 163.217 204 164Z" fill="#F2F2F7"/>
<path d="M168.556 145.256C169.25 144.397 169.116 143.138 168.256 142.444C167.397 141.75 166.138 141.884 165.444 142.744L167 144L168.556 145.256ZM202.233 164.931L203.162 166.703L202.233 164.931ZM204.164 162.075L206.162 162.16L204.164 162.075ZM161.821 147.423C161.163 148.311 161.349 149.563 162.236 150.221C163.123 150.879 164.376 150.693 165.034 149.806L163.427 148.615L161.821 147.423ZM158.642 159.336C159.206 158.386 158.893 157.159 157.943 156.595C156.993 156.031 155.766 156.344 155.202 157.293L156.922 158.314L158.642 159.336ZM149.995 168.213C149.652 169.263 150.225 170.392 151.275 170.736C152.324 171.079 153.454 170.506 153.797 169.456L151.896 168.835L149.995 168.213ZM154.347 178.024C153.45 177.379 152.2 177.583 151.555 178.479C150.91 179.376 151.114 180.626 152.011 181.271L153.179 179.647L154.347 178.024ZM164.925 182.419C166.009 182.204 166.713 181.151 166.497 180.068C166.282 178.985 165.229 178.281 164.146 178.496L164.536 180.458L164.925 182.419ZM175.013 175.267C173.977 175.651 173.448 176.801 173.831 177.837C174.215 178.873 175.365 179.402 176.401 179.019L175.707 177.143L175.013 175.267ZM187.281 174.507C188.287 174.051 188.734 172.866 188.278 171.86C187.823 170.854 186.638 170.407 185.632 170.862L186.456 172.684L187.281 174.507ZM196.098 165.838C195.112 166.336 194.715 167.538 195.213 168.525C195.71 169.511 196.913 169.907 197.899 169.41L196.998 167.624L196.098 165.838ZM204.289 165.933C205.122 165.209 205.211 163.945 204.486 163.112C203.761 162.278 202.498 162.19 201.664 162.915L202.976 164.424L204.289 165.933ZM202.106 162.292C201.739 163.334 202.285 164.476 203.327 164.843C204.369 165.211 205.511 164.665 205.878 163.623L203.992 162.957L202.106 162.292ZM206.182 161.615C206.214 160.511 205.345 159.59 204.24 159.558C203.136 159.526 202.215 160.395 202.183 161.499L204.182 161.557L206.182 161.615ZM202.199 160.517C202.198 161.621 203.092 162.518 204.197 162.519C205.301 162.52 206.198 161.625 206.199 160.521L204.199 160.519L202.199 160.517ZM167 144L165.444 142.744C164.227 144.251 163.01 145.819 161.821 147.423L163.427 148.615L165.034 149.806C166.189 148.248 167.372 146.722 168.556 145.256L167 144ZM156.922 158.314L155.202 157.293C152.968 161.057 151.109 164.806 149.995 168.213L151.896 168.835L153.797 169.456C154.786 166.433 156.487 162.964 158.642 159.336L156.922 158.314ZM153.179 179.647L152.011 181.271C154.823 183.294 159.191 183.559 164.925 182.419L164.536 180.458L164.146 178.496C158.634 179.591 155.732 179.021 154.347 178.024L153.179 179.647ZM175.707 177.143L176.401 179.019C179.661 177.813 183.279 176.317 187.281 174.507L186.456 172.684L185.632 170.862C181.699 172.642 178.17 174.1 175.013 175.267L175.707 177.143ZM196.998 167.624L197.899 169.41C199.597 168.553 201.351 167.651 203.162 166.703L202.233 164.931L201.305 163.16C199.512 164.099 197.777 164.992 196.098 165.838L196.998 167.624ZM202.233 164.931L203.162 166.703C203.566 166.491 203.945 166.232 204.289 165.933L202.976 164.424L201.664 162.915C201.556 163.009 201.435 163.092 201.305 163.16L202.233 164.931ZM203.992 162.957L205.878 163.623C206.041 163.163 206.141 162.672 206.162 162.16L204.164 162.075L202.166 161.991C202.162 162.09 202.142 162.19 202.106 162.292L203.992 162.957ZM204.164 162.075L206.162 162.16C206.17 161.979 206.176 161.796 206.182 161.615L204.182 161.557L202.183 161.499C202.179 161.663 202.173 161.828 202.166 161.991L204.164 162.075ZM204.199 160.519L206.199 160.521C206.199 160.325 206.197 160.137 206.194 159.96L204.194 160L202.195 160.04C202.197 160.184 202.199 160.344 202.199 160.517L204.199 160.519Z" fill="#D7D7D7"/>
<path d="M141 178L133 183" stroke="#C0C0C0" stroke-width="4" stroke-linecap="round"/>
<path d="M150 186.5L144.5 195.5" stroke="#C0C0C0" stroke-width="4" stroke-linecap="round"/>
<path d="M161.5 188L162.5 194" stroke="#C0C0C0" stroke-width="4" stroke-linecap="round"/>
</svg>
